<?xml version="1.0" encoding="UTF-8" standalone="no"?>
<svg
   xmlns:osb="http://www.openswatchbook.org/uri/2009/osb"
   xmlns:dc="http://purl.org/dc/elements/1.1/"
   xmlns:cc="http://creativecommons.org/ns#"
   xmlns:rdf="http://www.w3.org/1999/02/22-rdf-syntax-ns#"
   xmlns:svg="http://www.w3.org/2000/svg"
   xmlns="http://www.w3.org/2000/svg"
   id="svg4701"
   version="1.1"
   viewBox="0 0 30.389901 30.38969"
   height="30.38969mm"
   width="30.3899mm">
  <defs
     id="defs4695">
    <linearGradient
       osb:paint="solid"
       id="linearGradient5822">
      <stop
         id="stop5820"
         offset="0"
         style="stop-color:#000000;stop-opacity:1;" />
    </linearGradient>
    <linearGradient
       id="linearGradient416"
       spreadMethod="pad"
       gradientTransform="matrix(-3.75e-5,857.956,857.956,3.75e-5,1106.65,998.46)"
       gradientUnits="userSpaceOnUse"
       y2="0"
       x2="1"
       y1="0"
       x1="0">
      <stop
         id="stop412"
         offset="0"
         style="stop-opacity:1;stop-color:#ced2da" />
      <stop
         id="stop414"
         offset="1"
         style="stop-opacity:1;stop-color:#ffffff" />
    </linearGradient>
    <clipPath
       id="clipPath410-1"
       clipPathUnits="userSpaceOnUse">
      <path
         id="path408-8"
         d="m 1106.62,771.531 c -0.12,0 -0.22,0 -0.34,0 -24.43,0.02 -48.48,1.789 -71.97,5.188 -126.783,18.39 -238.247,84.371 -315.56,179.301 -24.293,29.82 -45.215,62.51 -62.184,97.47 -9.824,20.24 -18.328,41.25 -25.386,62.9 -4.703,14.42 -8.758,29.1 -12.153,44.06 -2.425,10.7 -4.511,21.52 -6.242,32.47 -1.301,8.25 -2.406,16.61 -3.301,24.99 -0.699,6.53 -1.265,13.08 -1.711,19.68 -0.351,5.24 -0.625,10.53 -0.812,15.81 -0.152,4.27 -0.25,8.52 -0.297,12.81 -0.012,1.13 -0.019,2.26 -0.023,3.39 -0.008,2.41 0,4.8 0.023,7.2 0.031,2.89 0.082,5.79 0.164,8.67 0.067,2.44 0.149,4.86 0.25,7.3 0.086,2.03 0.184,4.07 0.293,6.1 0.094,1.73 0.195,3.45 0.305,5.17 0.094,1.46 0.195,2.94 0.301,4.4 0.093,1.25 0.183,2.47 0.285,3.72 0.086,1.06 0.176,2.13 0.265,3.18 0.078,0.89 0.161,1.8 0.243,2.69 0.07,0.77 0.14,1.51 0.214,2.28 0.063,0.64 0.125,1.3 0.192,1.94 0.054,0.54 0.109,1.07 0.164,1.61 0.047,0.45 0.098,0.91 0.144,1.35 0.039,0.36 0.079,0.74 0.118,1.1 0.031,0.29 0.066,0.59 0.097,0.88 0.024,0.23 0.051,0.45 0.074,0.68 0.024,0.2 0.043,0.37 0.067,0.56 0.012,0.12 0.027,0.25 0.039,0.37 0.012,0.08 0.016,0.14 0.027,0.22 0.004,0.03 0.008,0.09 0.012,0.12 28.469,248.19 238.785,441.4 494.782,442.39 0.67,0.01 1.31,0.01 1.98,0.01 275.23,0 498.9,-222.59 499.97,-498.05 0.02,-5.18 -0.04,-10.35 -0.17,-15.48 0,-0.02 0,-0.01 0,-0.03 -0.01,-0.03 -0.01,-0.05 -0.01,-0.09 0,-0.08 0,-0.17 0,-0.25 -0.01,-0.12 -0.01,-0.28 -0.01,-0.39 -0.01,-0.2 -0.02,-0.37 -0.02,-0.57 -0.01,-0.23 -0.02,-0.5 -0.02,-0.73 -0.01,-0.32 -0.02,-0.6 -0.03,-0.92 -0.01,-0.38 -0.03,-0.79 -0.04,-1.17 -0.02,-0.45 -0.03,-0.93 -0.05,-1.38 -0.02,-0.57 -0.04,-1.09 -0.07,-1.66 -0.02,-0.66 -0.05,-1.35 -0.08,-2.02 -0.04,-0.78 -0.07,-1.56 -0.11,-2.35 -0.05,-0.93 -0.1,-1.85 -0.15,-2.78 -0.06,-1.08 -0.12,-2.17 -0.19,-3.24 -0.07,-1.28 -0.16,-2.56 -0.25,-3.83 -0.1,-1.49 -0.21,-2.97 -0.32,-4.46 -0.14,-1.77 -0.29,-3.55 -0.45,-5.31 -0.18,-2.07 -0.37,-4.11 -0.58,-6.18 -0.25,-2.43 -0.51,-4.85 -0.79,-7.27 -0.33,-2.89 -0.7,-5.79 -1.08,-8.66 -0.46,-3.46 -0.96,-6.93 -1.49,-10.37 -0.65,-4.16 -1.34,-8.3 -2.09,-12.43 -0.93,-5.11 -1.93,-10.21 -3.01,-15.26 -1.36,-6.35 -2.82,-12.62 -4.42,-18.88 -2.05,-8.07 -4.31,-16.07 -6.75,-23.97 -3.25,-10.53 -6.84,-20.91 -10.75,-31.13 -5.47,-14.26 -11.57,-28.21 -18.27,-41.82 -10.1,-20.49 -21.57,-40.21 -34.27,-59.001 -21.83,-32.289 -47.33,-61.89 -75.91,-88.211 -88.59,-81.597 -206.74,-131.609 -336.67,-132.117 -0.67,0 -1.31,0 -1.98,0 m 0.09,921.369 c -0.57,0 -1.13,0 -1.7,0 -232.713,-0.9 -420.635,-190.29 -419.737,-423.01 0.915,-232.16 189.403,-419.73 421.357,-419.73 0.55,0 1.11,0 1.66,0.012 232.72,0.887 420.63,190.288 419.75,422.998 -0.92,232.15 -189.4,419.73 -421.33,419.73" />
    </clipPath>
    <clipPath
       id="clipPath426"
       clipPathUnits="userSpaceOnUse">
      <path
         id="path424"
         d="m 1106.63,850.16 c -231.954,0 -420.442,187.57 -421.357,419.73 -0.898,232.72 187.024,422.11 419.737,423.01 0.57,0 1.13,0 1.7,0 231.93,0 420.41,-187.58 421.33,-419.73 0.88,-232.71 -187.03,-422.111 -419.75,-422.998 -0.55,-0.012 -1.11,-0.012 -1.66,-0.012 m 0.07,820.58 c -0.54,0 -1.05,0 -1.59,-0.01 -220.469,-0.86 -398.501,-180.29 -397.661,-400.74 0.879,-219.93 179.442,-397.631 399.171,-397.638 0.54,0 1.05,0 1.59,0 220.45,0.859 398.5,180.278 397.64,400.748 -0.88,219.91 -179.44,397.64 -399.15,397.64" />
    </clipPath>
    <linearGradient
       id="linearGradient432"
       spreadMethod="pad"
       gradientTransform="matrix(-3.68e-5,842.734,842.734,3.68e-5,1106.66,850.17)"
       gradientUnits="userSpaceOnUse"
       y2="0"
       x2="1"
       y1="0"
       x1="0">
      <stop
         id="stop428"
         offset="0"
         style="stop-opacity:1;stop-color:#ffffff" />
      <stop
         id="stop430"
         offset="1"
         style="stop-opacity:1;stop-color:#ced2da" />
    </linearGradient>
    <clipPath
       id="clipPath442"
       clipPathUnits="userSpaceOnUse">
      <path
         id="path440"
         d="m 1106.62,872.352 c -219.729,0.007 -398.292,177.708 -399.171,397.638 -0.84,220.45 177.192,399.88 397.661,400.74 0.54,0.01 1.05,0.01 1.59,0.01 219.71,0 398.27,-177.73 399.15,-397.64 0.86,-220.47 -177.19,-399.889 -397.64,-400.748 -0.54,0 -1.05,0 -1.59,0 m 3.34,748.658 c -0.43,0 -0.86,0 -1.3,0 -179.273,-0.71 -324.043,-146.59 -323.34,-325.86 0.703,-178.84 145.883,-323.318 324.56,-323.33 0.44,0 0.86,0 1.3,0.012 179.26,0.699 324.03,146.578 323.32,325.858 -0.7,178.82 -145.88,323.32 -324.54,323.32" />
    </clipPath>
    <linearGradient
       id="linearGradient448"
       spreadMethod="pad"
       gradientTransform="matrix(-3.49e-5,-798.389,-798.389,3.49e-5,1106.65,1670.74)"
       gradientUnits="userSpaceOnUse"
       y2="0"
       x2="1"
       y1="0"
       x1="0">
      <stop
         id="stop444"
         offset="0"
         style="stop-opacity:1;stop-color:#5e6776" />
      <stop
         id="stop446"
         offset="1"
         style="stop-opacity:1;stop-color:#3d4350" />
    </linearGradient>
    <clipPath
       id="clipPath458"
       clipPathUnits="userSpaceOnUse">
      <path
         id="path456"
         d="m 1109.88,971.82 c -178.677,0.012 -323.857,144.49 -324.56,323.33 -0.703,179.27 144.067,325.15 323.34,325.86 0.44,0 0.87,0 1.3,0 178.66,0 323.84,-144.5 324.54,-323.32 0.71,-179.28 -144.06,-325.159 -323.32,-325.858 -0.44,-0.012 -0.86,-0.012 -1.3,-0.012" />
    </clipPath>
    <clipPath
       id="clipPath486"
       clipPathUnits="userSpaceOnUse">
      <path
         id="path484"
         d="m 1167.63,1492.24 v -54.87 c 64.12,-25.35 109.61,-87.77 109.61,-160.91 0,-95.59 -77.48,-173.07 -173.09,-173.07 -95.61,0 -173.087,77.48 -173.087,173.07 0,73.14 45.492,135.56 109.607,160.91 v 54.87 c -93.315,-27.43 -161.522,-113.58 -161.522,-215.78 0,-124.26 100.747,-225 225.002,-225 124.26,0 225,100.74 225,225 0,102.2 -68.2,188.35 -161.52,215.78 z" />
    </clipPath>
    <linearGradient
       id="linearGradient492"
       spreadMethod="pad"
       gradientTransform="matrix(-1.93e-5,440.776,440.776,1.93e-5,1104.15,1051.46)"
       gradientUnits="userSpaceOnUse"
       y2="0"
       x2="1"
       y1="0"
       x1="0">
      <stop
         id="stop488"
         offset="0"
         style="stop-opacity:1;stop-color:#ced2da" />
      <stop
         id="stop490"
         offset="1"
         style="stop-opacity:1;stop-color:#ffffff" />
    </linearGradient>
    <clipPath
       id="clipPath470"
       clipPathUnits="userSpaceOnUse">
      <path
         id="path468"
         d="m 1104.15,1224.54 c 14.29,0 25.97,15.59 25.97,34.61 v 207.7 c 0,19.04 -11.68,34.61 -25.97,34.61 -14.29,0 -25.97,-15.57 -25.97,-34.61 v -207.7 c 0,-19.02 11.68,-34.61 25.97,-34.61 z" />
    </clipPath>
    <linearGradient
       id="linearGradient476"
       spreadMethod="pad"
       gradientTransform="matrix(-1.21e-5,276.909,276.909,1.21e-5,1104.15,1224.54)"
       gradientUnits="userSpaceOnUse"
       y2="0"
       x2="1"
       y1="0"
       x1="0">
      <stop
         id="stop472"
         offset="0"
         style="stop-opacity:1;stop-color:#ced2da" />
      <stop
         id="stop474"
         offset="1"
         style="stop-opacity:1;stop-color:#ffffff" />
    </linearGradient>
  </defs>
  <metadata
     id="metadata4698">
    <rdf:RDF>
      <cc:Work
         rdf:about="">
        <dc:format>image/svg+xml</dc:format>
        <dc:type
           rdf:resource="http://purl.org/dc/dcmitype/StillImage" />
        <dc:title></dc:title>
      </cc:Work>
    </rdf:RDF>
  </metadata>
  <g
     transform="translate(-132.90844,-184.53944)"
     id="layer1">
    <path
       id="path428"
       style="fill:#f25547;fill-opacity:1;fill-rule:nonzero;stroke:none;stroke-width:0.03527778"
       d="m 132.90844,199.73428 c 0,8.39223 6.80311,15.19485 15.19509,15.19485 8.39184,0 15.19481,-6.80262 15.19481,-15.19485 0,-8.39187 -6.80297,-15.19484 -15.19481,-15.19484 -8.39198,0 -15.19509,6.80297 -15.19509,15.19484" />
    <path
       id="path430"
       style="fill:#e44e40;fill-opacity:1;fill-rule:nonzero;stroke:none;stroke-width:0.03527778"
       d="m 150.81385,214.68324 -0.0668,-0.0667 c -0.0405,-0.0395 -0.0805,-0.0794 -0.12001,-0.11995 -0.0408,-0.0399 -0.0812,-0.0804 -0.12115,-0.121 -0.0397,-0.0392 -0.0791,-0.0783 -0.11793,-0.11818 -0.0419,-0.0409 -0.0831,-0.0822 -0.12376,-0.12347 -0.04,-0.0395 -0.0794,-0.079 -0.11853,-0.11889 -0.0402,-0.0395 -0.0802,-0.0794 -0.11959,-0.11959 -0.0407,-0.0399 -0.081,-0.0801 -0.12086,-0.12065 -0.0408,-0.0399 -0.0813,-0.0804 -0.12139,-0.12171 -0.0401,-0.0392 -0.0799,-0.079 -0.11935,-0.11924 -0.0407,-0.0399 -0.081,-0.0801 -0.121,-0.12065 -0.04,-0.0392 -0.0794,-0.079 -0.1185,-0.11888 -0.0409,-0.0399 -0.081,-0.0801 -0.12114,-0.12101 -0.0409,-0.0399 -0.0813,-0.0804 -0.12101,-0.121 -0.0403,-0.0395 -0.08,-0.0794 -0.11959,-0.11959 -0.0404,-0.0399 -0.0808,-0.0801 -0.12044,-0.1203 -0.0403,-0.0395 -0.0801,-0.0794 -0.11934,-0.11924 -0.0406,-0.0402 -0.0812,-0.0804 -0.12114,-0.12135 -0.0402,-0.0395 -0.0803,-0.0797 -0.12002,-0.1203 -0.0403,-0.0392 -0.0799,-0.0787 -0.1192,-0.11889 -0.0418,-0.0409 -0.083,-0.0822 -0.12376,-0.12382 -0.0397,-0.0392 -0.0788,-0.0783 -0.11754,-0.11748 -0.0404,-0.0395 -0.0803,-0.0797 -0.11974,-0.11994 -0.0409,-0.0402 -0.081,-0.0804 -0.121,-0.121 -0.0408,-0.0399 -0.0806,-0.0797 -0.12044,-0.1203 -0.0402,-0.0395 -0.0798,-0.079 -0.1192,-0.11889 -0.0413,-0.0409 -0.0821,-0.0815 -0.12252,-0.12276 -0.0405,-0.0395 -0.0802,-0.0794 -0.11973,-0.11995 -0.0401,-0.0392 -0.0798,-0.0787 -0.11892,-0.11888 -0.0409,-0.0399 -0.081,-0.0804 -0.12073,-0.12101 -0.0409,-0.0399 -0.081,-0.0801 -0.121,-0.12065 -0.0401,-0.0395 -0.0798,-0.079 -0.11906,-0.11924 -0.0405,-0.0395 -0.0806,-0.0797 -0.12044,-0.11994 -0.0409,-0.0402 -0.0814,-0.0808 -0.12139,-0.12171 -0.0404,-0.0395 -0.0801,-0.0794 -0.11949,-0.11994 -0.0408,-0.0395 -0.0809,-0.0797 -0.12043,-0.11995 -0.0405,-0.0399 -0.0806,-0.0797 -0.1203,-0.12029 -0.0409,-0.0402 -0.0816,-0.0808 -0.12182,-0.12171 -0.0392,-0.0385 -0.0777,-0.0773 -0.11616,-0.11642 -0.0416,-0.0406 -0.083,-0.0818 -0.12348,-0.12347 -0.0402,-0.0392 -0.0801,-0.079 -0.11948,-0.11924 -0.0405,-0.0399 -0.0807,-0.0801 -0.12044,-0.12065 -0.0404,-0.0395 -0.0807,-0.0797 -0.1203,-0.1203 -0.0404,-0.0395 -0.0802,-0.0794 -0.11934,-0.11924 -0.0409,-0.0402 -0.0815,-0.0804 -0.12154,-0.12135 -0.04,-0.0392 -0.0792,-0.0787 -0.11839,-0.11854 -0.0416,-0.0406 -0.0827,-0.0818 -0.12319,-0.12312 -0.0401,-0.0392 -0.0795,-0.079 -0.11864,-0.11888 -0.0408,-0.0399 -0.0807,-0.0797 -0.12043,-0.12065 -0.0405,-0.0395 -0.0805,-0.0794 -0.11991,-0.11959 -0.0406,-0.0399 -0.0809,-0.0801 -0.12072,-0.12065 -0.0404,-0.0395 -0.0806,-0.0797 -0.12002,-0.1203 -0.0406,-0.0395 -0.0807,-0.0797 -0.12044,-0.1203 -0.0403,-0.0392 -0.0802,-0.079 -0.11948,-0.11924 -0.0412,-0.0402 -0.0816,-0.0808 -0.12182,-0.12206 -0.0405,-0.0395 -0.0803,-0.0794 -0.11987,-0.11959 -0.0401,-0.0395 -0.0799,-0.0794 -0.11935,-0.11959 -0.0407,-0.0399 -0.0807,-0.0801 -0.12058,-0.12065 -0.0412,-0.0402 -0.0817,-0.0808 -0.12181,-0.12206 -0.0394,-0.0385 -0.0786,-0.0773 -0.11716,-0.11677 -0.0413,-0.0402 -0.082,-0.0808 -0.1222,-0.12206 -0.0402,-0.0395 -0.0799,-0.0794 -0.1192,-0.11924 -0.0411,-0.0406 -0.0816,-0.0808 -0.12182,-0.12206 -0.0404,-0.0395 -0.0801,-0.079 -0.11934,-0.11959 -0.0411,-0.0399 -0.0813,-0.0801 -0.12129,-0.12101 -0.0404,-0.0395 -0.0805,-0.0797 -0.12001,-0.11994 -0.0398,-0.0392 -0.0792,-0.0783 -0.11825,-0.11818 -0.0406,-0.0399 -0.0806,-0.0797 -0.1203,-0.1203 -0.0416,-0.0409 -0.0828,-0.0818 -0.12376,-0.12382 -0.0397,-0.0388 -0.0787,-0.078 -0.11768,-0.11748 -1.49874,-1.46755 -2.43015,-3.51261 -2.43015,-5.77603 0,-3.67242 2.45068,-6.76769 5.80373,-7.753 v 0.16122 c 0.0405,-0.0127 0.0794,-0.0289 0.12029,-0.0406 v 0.16087 c 0.0407,-0.0127 0.0795,-0.0286 0.12058,-0.0409 v 0.16086 c 0.0405,-0.0123 0.0794,-0.0282 0.12005,-0.0406 v 0.16086 c 0.0406,-0.0123 0.0795,-0.0282 0.12016,-0.0402 v 0.16051 c 0.0405,-0.0123 0.0797,-0.0286 0.1203,-0.0406 v 0.16087 c 0.0407,-0.0123 0.0796,-0.0282 0.12044,-0.0406 v 0.16086 c 0.0405,-0.0127 0.0795,-0.0289 0.12015,-0.0406 v 0.16087 c 0.0405,-0.0127 0.0795,-0.0289 0.12033,-0.0406 v 0.16087 c 0.0406,-0.0127 0.0794,-0.0286 0.12016,-0.0409 v 0.16122 c 0.0405,-0.0123 0.0797,-0.0286 0.12044,-0.0406 v 0.16086 c 0.0405,-0.0127 0.0794,-0.0289 0.12001,-0.0409 v 0.16122 l 0.0247,-0.008 v -2.18052 c 0,-0.68403 0.41973,-1.24354 0.9332,-1.24354 0.23329,0 0.44468,0.11959 0.60868,0.31009 0.0428,0.0356 0.0824,0.0762 0.1203,0.1203 0.0429,0.0353 0.082,0.0762 0.12001,0.11995 0.0429,0.0353 0.0823,0.0762 0.1203,0.12065 0.043,0.0353 0.0824,0.0758 0.1203,0.11959 0.043,0.036 0.0827,0.0765 0.12044,0.121 0.0429,0.0353 0.0822,0.0759 0.11991,0.11959 0.043,0.0356 0.0825,0.0765 0.12086,0.12065 0.0427,0.0356 0.082,0.0762 0.11973,0.1203 0.043,0.0353 0.0827,0.0762 0.12058,0.1203 0.0426,0.0356 0.082,0.0762 0.11963,0.11994 0.0433,0.0356 0.0829,0.0765 0.12086,0.12065 0.043,0.0356 0.0824,0.0762 0.12016,0.1203 0.0429,0.0356 0.0825,0.0762 0.12043,0.12029 0.0385,0.0321 0.074,0.0688 0.10873,0.1076 v -0.0328 c 1.3008,0.38241 2.46249,1.0848 3.40159,2.0126 0.0416,0.0395 0.0808,0.0811 0.12171,0.12171 0.0409,0.0388 0.0794,0.0801 0.11959,0.11994 0.0413,0.0392 0.0804,0.0808 0.121,0.12065 0.0406,0.0385 0.0787,0.0794 0.11818,0.11854 0.0416,0.0395 0.0811,0.0815 0.12206,0.12171 0.0406,0.0388 0.079,0.0797 0.11889,0.11888 0.042,0.0399 0.0815,0.0822 0.12277,0.12277 0.0402,0.0385 0.078,0.079 0.11782,0.11783 0.0413,0.0395 0.0804,0.0811 0.12136,0.12135 0.0409,0.0388 0.0797,0.0804 0.11959,0.11995 0.0413,0.0392 0.0804,0.0808 0.121,0.121 0.0409,0.0388 0.0797,0.0801 0.11995,0.11994 0.0406,0.0385 0.0794,0.0797 0.11924,0.11924 0.0413,0.0395 0.0808,0.0811 0.12171,0.12136 0.0409,0.0392 0.0794,0.0801 0.11923,0.11959 0.0416,0.0392 0.0804,0.0811 0.12101,0.121 0.0413,0.0392 0.0801,0.0804 0.12029,0.1203 0.0413,0.0392 0.0801,0.0804 0.1203,0.1203 0.0409,0.0388 0.079,0.0794 0.11889,0.11888 0.0413,0.0395 0.0808,0.0808 0.12135,0.12101 0.0413,0.0392 0.0801,0.0808 0.12065,0.12065 0.0409,0.0388 0.0797,0.0804 0.11995,0.11994 0.0409,0.0388 0.0797,0.0804 0.11994,0.1203 0.0413,0.0392 0.0804,0.0808 0.12101,0.12065 0.0409,0.0388 0.0797,0.0804 0.11994,0.12029 0.0413,0.0392 0.0797,0.0804 0.11994,0.11995 0.0413,0.0388 0.0797,0.0801 0.1196,0.11959 0.0416,0.0395 0.0808,0.0811 0.12135,0.12136 0.0409,0.0384 0.0794,0.0797 0.11959,0.11923 0.0413,0.0395 0.0804,0.0811 0.12101,0.12136 0.0409,0.0392 0.0801,0.0801 0.12029,0.1203 0.0409,0.0385 0.0794,0.0794 0.11959,0.11924 0.0413,0.0395 0.0801,0.0811 0.12065,0.121 0.0413,0.0388 0.0797,0.0801 0.1203,0.11994 0.0413,0.0392 0.0804,0.0808 0.12065,0.12101 0.0406,0.0385 0.079,0.0797 0.11924,0.11924 0.0409,0.0391 0.0801,0.0804 0.1203,0.12029 0.0416,0.0395 0.0808,0.0811 0.12171,0.12171 0.0409,0.0388 0.079,0.0794 0.11888,0.11889 0.0413,0.0392 0.0804,0.0804 0.12065,0.12029 0.0413,0.0395 0.0801,0.0808 0.12065,0.12101 0.0406,0.0385 0.079,0.0794 0.11924,0.11888 0.0413,0.0395 0.0808,0.0815 0.12136,0.12171 0.0409,0.0388 0.0794,0.0801 0.11994,0.11959 0.0409,0.0392 0.0801,0.0808 0.1203,0.12065 0.0413,0.0388 0.0801,0.0801 0.1203,0.11995 0.0409,0.0392 0.0794,0.0801 0.11959,0.11994 0.0416,0.0392 0.0808,0.0808 0.121,0.121 0.0413,0.0392 0.0801,0.0804 0.12065,0.1203 0.0409,0.0388 0.0794,0.0801 0.11924,0.11959 0.0413,0.0392 0.0801,0.0804 0.12065,0.1203 0.0413,0.0392 0.0801,0.0808 0.12065,0.12065 0.0409,0.0388 0.079,0.0797 0.11924,0.11959 0.0416,0.0392 0.0811,0.0811 0.12171,0.12171 0.0409,0.0385 0.079,0.0794 0.11924,0.11924 0.0413,0.0392 0.0801,0.0804 0.12029,0.1203 0.0413,0.0392 0.0801,0.0808 0.12065,0.12029 0.0409,0.0392 0.0797,0.0804 0.1203,0.1203 0.0409,0.0392 0.0797,0.0804 0.1203,0.1203 0.0409,0.0388 0.0797,0.0804 0.11994,0.1203 0.0409,0.0388 0.0797,0.0801 0.11995,0.11994 0.0416,0.0392 0.0808,0.0811 0.12135,0.121 0.0409,0.0388 0.079,0.0801 0.11924,0.11959 0.0413,0.0392 0.0804,0.0808 0.12065,0.12065 0.0413,0.0388 0.0797,0.0801 0.11959,0.1196 0.042,0.0395 0.0811,0.0811 0.12171,0.12135 0.0409,0.0388 0.0794,0.0801 0.11924,0.11924 0.0413,0.0392 0.0801,0.0808 0.12065,0.12065 0.0409,0.0392 0.0797,0.0804 0.1203,0.1203 0.0409,0.0392 0.0797,0.0804 0.11994,0.1203 0.0416,0.0395 0.0804,0.0808 0.121,0.121 0.0409,0.0384 0.079,0.0794 0.11889,0.11853 0.0413,0.0395 0.0804,0.0811 0.121,0.121 0.0413,0.0395 0.0801,0.0808 0.12101,0.12101 l 0.0656,0.066 c -1.53388,5.58129 -6.16938,9.8746 -11.93874,10.91388" />
    <path
       id="path432"
       style="fill:#ffffff;fill-opacity:1;fill-rule:nonzero;stroke:none;stroke-width:0.03527778"
       d="m 148.10367,200.79191 c 0.51305,0 0.93292,-0.56021 0.93292,-1.24425 V 192.085 c 0,-0.68368 -0.41987,-1.24354 -0.93292,-1.24354 -0.51361,0 -0.93334,0.55986 -0.93334,1.24354 v 7.46266 c 0,0.68404 0.41973,1.24425 0.93334,1.24425" />
    <path
       id="path434"
       style="fill:#ffffff;fill-opacity:1;fill-rule:nonzero;stroke:none;stroke-width:0.03527778"
       d="m 150.38445,192.78985 v 1.97133 c 2.30375,0.91052 3.93817,3.15348 3.93817,5.78167 0,3.43429 -2.78377,6.21877 -6.21895,6.21877 -3.43531,0 -6.21951,-2.78448 -6.21951,-6.21877 0,-2.62819 1.63478,-4.87115 3.93856,-5.78167 v -1.97133 c -3.35305,0.98531 -5.80373,4.08058 -5.80373,7.753 0,4.46476 3.61968,8.08461 8.08468,8.08461 4.46493,0 8.08443,-3.61985 8.08443,-8.08461 0,-3.67242 -2.45074,-6.76769 -5.80365,-7.753" />
  </g>
</svg>
